<svg width="65" height="88" viewBox="0 0 65 88" fill="none" xmlns="http://www.w3.org/2000/svg">
<path d="M17.3326 26.1092H14.8226C14.6013 26.1092 14.3862 26.0929 14.1724 26.0686C14.123 26.8601 14.1731 27.7627 14.3429 28.7119C14.8029 31.289 15.9619 33.2815 17.0382 33.4323C18.4001 37.1047 20.5618 40.6716 23.2348 43.2777C24.7442 44.7567 26.4201 45.9258 28.2048 46.6355C29.4327 47.1186 30.7148 47.3919 32.0368 47.3919C33.35 47.3919 34.6334 47.1233 35.86 46.6355C37.7084 45.8981 39.4397 44.6742 40.9917 43.1242C43.5993 40.5223 45.7094 37.0082 47.0423 33.4006C48.0734 33.0989 49.1512 31.1707 49.5923 28.708C49.7581 27.7757 49.8095 26.8887 49.7648 26.1079C49.7473 26.1079 49.733 26.1099 49.7161 26.1099H46.7426C46.9057 26.5395 46.9916 27.1227 46.9781 27.7966C46.9706 28.1944 46.9307 28.6247 46.8489 29.0699C46.8292 29.189 46.7995 29.2911 46.7711 29.4034C46.5079 30.6111 46.0241 31.5996 45.51 32.0366C45.3956 32.1374 45.2691 32.2071 45.1527 32.2463C45.0425 32.2822 44.9335 32.2984 44.8246 32.2795C44.7062 32.2592 44.5926 32.1969 44.4911 32.1029C43.2523 35.9545 40.8925 39.7872 37.9169 42.1215C37.4758 42.4618 37.0225 42.775 36.5591 43.047C35.1457 43.8785 33.6242 44.3683 32.0382 44.3683C29.974 44.3683 28.0167 43.5497 26.2712 42.2141C23.2402 39.8928 20.835 36.0073 19.5806 32.1049C19.4785 32.199 19.3641 32.2599 19.243 32.2815C18.9873 32.3261 18.7146 32.1962 18.4555 31.9412C17.9271 31.4135 17.4488 30.3506 17.2215 29.0732C17.2059 28.99 17.1951 28.9094 17.1863 28.8249C17.1904 27.9386 17.2316 27.0719 17.2912 26.2167C17.3054 26.1767 17.3189 26.1449 17.3324 26.1091L17.3326 26.1092Z" fill="black"/>
<path d="M64.0324 61.6844C62.9032 57.7772 61.4784 55.0921 60.0122 53.2016C57.1619 49.519 54.1647 48.927 52.8859 48.6814C52.7297 48.653 52.5991 48.6273 52.4929 48.6036C51.0687 48.2701 49.4335 48.1727 47.9917 48.0915C46.8308 48.0225 45.7239 47.9623 44.822 47.7823C43.7733 50.5563 38.6213 52.5716 32.2753 52.5716C25.9271 52.5716 20.7791 50.5561 19.7311 47.7823C18.8245 47.9636 17.7163 48.0258 16.5588 48.0928C15.1157 48.1733 13.4831 48.2714 12.0583 48.6043C11.9514 48.6273 11.8195 48.6537 11.6639 48.6821C10.4583 48.9155 7.71964 49.4419 5.01599 52.5961C3.38752 54.4992 1.77196 57.3516 0.513494 61.6776C0.200245 62.7574 0.198218 63.8941 0.452604 64.9528C0.569649 65.4359 0.723906 65.9122 0.955284 66.3513C2.56211 69.3958 8.30345 71.3057 15.4228 72.3821V71.8429C15.4228 69.9547 16.6156 68.337 18.3239 67.7375C17.5276 66.1063 17.8334 64.1111 19.1805 62.7736L21.5335 60.4226C22.3373 59.6168 23.4625 59.1541 24.6186 59.1541C25.2714 59.1541 25.9115 59.3002 26.4893 59.5729C27.0772 57.8598 28.7011 56.6643 30.6014 56.6643H33.9341C35.8244 56.6643 37.4454 57.8591 38.0436 59.5701C38.6214 59.2934 39.2655 59.1466 39.9265 59.1466C41.0963 59.1466 42.193 59.6032 43.0001 60.4178L45.3592 62.7737C46.6961 64.1092 46.9965 66.0982 46.2097 67.7308C47.9207 68.3188 49.1162 69.9412 49.1162 71.8429V72.3835C56.2369 71.3091 61.9802 69.3972 63.5904 66.3513C63.8611 65.8452 64.0228 65.2884 64.1392 64.7181C64.3347 63.7262 64.3191 62.6844 64.0323 61.6843L64.0324 61.6844Z" fill="#7FBB42"/>
<path d="M14.8228 23.047H49.7174C51.078 23.047 52.1808 21.9449 52.1808 20.5857C52.1808 19.2258 51.078 18.1243 49.7174 18.1243H49.0489C49.0489 11.584 45.3049 5.92448 39.847 3.15537L38.456 11.038C38.3464 11.6625 37.8025 12.1009 37.1881 12.1009C37.1151 12.1009 37.0407 12.0948 36.9642 12.0813C36.2646 11.9561 35.7985 11.2911 35.9243 10.5908L37.5075 1.5879C36.9141 0.635297 35.8587 0 34.6504 0H29.8874C28.6817 0 27.6262 0.635297 27.031 1.58857L28.6175 10.5936C28.742 11.2938 28.2752 11.9595 27.5749 12.084C27.4992 12.0976 27.4247 12.1037 27.351 12.1037C26.738 12.1037 26.1927 11.6653 26.0845 11.0408L24.6948 3.15951C19.2369 5.92672 15.4929 11.586 15.4929 18.1264H14.8217C13.4632 18.1264 12.3611 19.2272 12.3611 20.5877C12.3618 21.9456 13.4625 23.047 14.8224 23.047L14.8228 23.047Z" fill="#EC9514"/>
<path d="M44.9251 70.5643L42.8453 70.2159C42.6478 69.5732 42.3873 68.9514 42.0761 68.3575L43.2824 66.6661C43.7046 66.1498 43.6646 65.4083 43.1958 64.9408L40.8366 62.585C40.5944 62.3414 40.271 62.2095 39.9267 62.2095C39.629 62.2095 39.3387 62.3103 39.1351 62.4801L37.4186 63.7054C36.8253 63.3928 36.2015 63.1323 35.5595 62.9334L35.2178 60.8862C35.1509 60.2245 34.6001 59.7279 33.9337 59.7279H30.601C29.9366 59.7279 29.3859 60.2252 29.3237 60.8571L28.9786 62.9348C28.3345 63.1337 27.7128 63.3948 27.1174 63.7067L25.428 62.4984C25.198 62.3123 24.9084 62.219 24.6189 62.219C24.2826 62.219 23.947 62.3435 23.7021 62.5863L21.3463 64.9422C20.8727 65.4117 20.8361 66.1566 21.2394 66.6451L22.4653 68.3602C22.1541 68.9535 21.8943 69.5753 21.696 70.2186L19.6467 70.5616C18.9864 70.6286 18.4878 71.1793 18.4878 71.8458V75.1771C18.4878 75.8442 18.9864 76.3956 19.619 76.4565L21.6974 76.8029C21.8943 77.4422 22.1561 78.0673 22.4666 78.662L21.263 80.3513C20.8382 80.8655 20.8781 81.6084 21.3483 82.0786L23.7042 84.4345C23.9464 84.6767 24.2698 84.8147 24.6148 84.8147C24.9125 84.8147 25.2007 84.7098 25.405 84.538L27.1201 83.3161C27.7168 83.6287 28.3372 83.8885 28.9813 84.0874L29.3209 86.1346C29.3886 86.7936 29.9407 87.2922 30.6044 87.2922H33.9371C34.6042 87.2922 35.1542 86.7936 35.2144 86.161L35.5615 84.0847C36.2036 83.8858 36.8274 83.626 37.4206 83.3134L39.11 84.517C39.3407 84.7051 39.6316 84.7985 39.9226 84.7985C40.2588 84.7985 40.5944 84.674 40.8373 84.4318L43.1931 82.0759C43.6633 81.6057 43.7032 80.8628 43.3 80.373L42.0761 78.6599C42.3873 78.0666 42.6471 77.4428 42.8454 76.7994L44.8907 76.4544C45.5557 76.3935 46.0544 75.8421 46.0544 75.175V71.8437C46.0557 71.1759 45.5564 70.6252 44.9252 70.5643H44.9251ZM32.2708 79.022C29.231 79.022 26.7568 76.5499 26.7568 73.508C26.7568 70.4675 29.231 67.9947 32.2708 67.9947C35.3113 67.9947 37.7869 70.4668 37.7869 73.508C37.7862 76.5492 35.3113 79.022 32.2708 79.022Z" fill="#445A64"/>
</svg>
